<svg width="30" height="22" viewBox="0 0 30 22" fill="none" xmlns="http://www.w3.org/2000/svg">
<path d="M16.6721 1.50436C15.9037 0.735969 14.6579 0.735969 13.8895 1.50436L1.36778 14.026C0.599386 14.7944 0.599386 16.0403 1.36778 16.8086C2.13617 17.577 3.38198 17.577 4.15038 16.8086L15.2808 5.67826L26.4111 16.8086C27.1795 17.577 28.4254 17.577 29.1937 16.8086C29.9621 16.0403 29.9621 14.7944 29.1937 14.026L16.6721 1.50436ZM13.3132 19.698C13.3132 20.7847 14.1941 21.6656 15.2808 21.6656C16.3674 21.6656 17.2484 20.7847 17.2484 19.698H13.3132ZM13.3132 2.89566V19.698H17.2484V2.89566H13.3132Z" fill="#D9D9D9"/>
</svg>
