<svg width="57" height="20" viewBox="0 0 57 20" fill="none" xmlns="http://www.w3.org/2000/svg">
<path d="M56.3502 9.96795C56.3543 10.6126 56.1498 11.2477 55.8223 11.8001C55.4947 12.3538 55.0628 12.841 54.5836 13.2685C53.6239 14.1276 52.5017 14.7817 51.3497 15.3436C49.0322 16.4578 46.5617 17.2191 44.0628 17.8081C41.5613 18.393 39.0204 18.8178 36.4647 19.1001C33.9089 19.3865 31.3383 19.5466 28.7636 19.5887C23.6182 19.6633 18.4418 19.3077 13.3682 18.237C12.1025 17.9628 10.8422 17.6425 9.59955 17.2558C8.35822 16.8649 7.12502 16.4225 5.93513 15.8525C4.74796 15.2825 3.58515 14.6161 2.55365 13.7069C2.0406 13.2522 1.56411 12.7284 1.19049 12.1041C0.818229 11.4852 0.566444 10.7374 0.567797 9.96795C0.563736 9.1971 0.816876 8.45068 1.18914 7.83047C1.56275 7.20619 2.03925 6.68098 2.55229 6.22769C3.58244 5.31842 4.7466 4.65206 5.93378 4.08207C7.12231 3.51071 8.35551 3.06693 9.59819 2.67743C10.8422 2.29065 12.1011 1.97037 13.3682 1.69623C18.4418 0.62409 23.6182 0.26988 28.7636 0.344522C31.3383 0.386593 33.9089 0.546737 36.4647 0.834449C39.0204 1.11809 41.5613 1.54152 44.0628 2.1278C46.5617 2.71679 49.0322 3.47814 51.3497 4.5937C52.5017 5.15556 53.6239 5.8097 54.5836 6.66876C55.0628 7.09626 55.4947 7.58347 55.8223 8.13718C56.1498 8.68953 56.3543 9.32332 56.3502 9.96931V9.96795ZM56.3502 9.96795C56.3502 9.32196 56.1417 8.69089 55.8128 8.14125C55.4825 7.59026 55.0493 7.10711 54.5688 6.68369C53.6063 5.83277 52.4841 5.18677 51.3308 4.63306C50.1747 4.078 48.9645 3.64371 47.7435 3.25964C46.5198 2.87829 45.2771 2.56344 44.0263 2.29337C39.0109 1.2348 33.8724 0.881945 28.7649 0.957945C26.2092 1.00002 23.6575 1.16016 21.1234 1.4438C18.5893 1.72473 16.0728 2.14544 13.5997 2.72358C11.1319 3.30443 8.69529 4.06035 6.44276 5.14335C5.32327 5.68756 4.24439 6.32269 3.35096 7.1234C2.9056 7.52104 2.51574 7.96618 2.23147 8.44661C1.94584 8.92839 1.78611 9.44681 1.78746 9.96795C1.7834 10.4891 1.94584 11.0089 2.23012 11.4893C2.51439 11.9711 2.90425 12.4149 3.34961 12.8139C4.24304 13.6132 5.32192 14.2497 6.44141 14.7939C8.69258 15.8796 11.1306 16.6328 13.5983 17.215C16.0701 17.7959 18.588 18.2152 21.1221 18.4962C23.6561 18.7812 26.2078 18.94 28.7636 18.982C33.871 19.0567 39.0109 18.7025 44.025 17.6439C45.2757 17.3725 46.5184 17.0576 47.7422 16.6763C48.9632 16.2922 50.1734 15.8579 51.3294 15.3028C52.4827 14.7491 53.6049 14.1031 54.5674 13.2522C55.0466 12.8288 55.4811 12.3456 55.8114 11.7947C56.1417 11.2464 56.3502 10.6139 56.3488 9.96795H56.3502Z" fill="url(#paint0_linear_160_334)"/>
<defs>
<linearGradient id="paint0_linear_160_334" x1="10.8206" y1="24.1351" x2="46.4289" y2="-4.57864" gradientUnits="userSpaceOnUse">
<stop stop-color="#2E660D"/>
<stop offset="1" stop-color="#9DDC63"/>
</linearGradient>
</defs>
</svg>
