<svg width="48" height="17" viewBox="0 0 48 17" fill="none" xmlns="http://www.w3.org/2000/svg">
<path d="M47.6721 8.72052C47.6755 9.27061 47.5011 9.81259 47.2216 10.2839C46.942 10.7564 46.5735 11.1722 46.1646 11.537C45.3456 12.2701 44.388 12.8282 43.405 13.3077C41.4274 14.2585 39.3192 14.9082 37.1869 15.4108C35.0522 15.9099 32.884 16.2724 30.7031 16.5133C28.5222 16.7576 26.3286 16.8943 24.1315 16.9302C19.7408 16.9939 15.3235 16.6905 10.9941 15.7767C9.91403 15.5428 8.83859 15.2695 7.77818 14.9394C6.71891 14.6059 5.66658 14.2284 4.65121 13.742C3.63816 13.2556 2.64589 12.687 1.76568 11.911C1.32788 11.5231 0.921269 11.0761 0.602451 10.5433C0.284787 10.0153 0.0699309 9.37715 0.071086 8.72052C0.0676206 8.06272 0.283633 7.42578 0.601296 6.89653C0.920115 6.36381 1.32672 5.91563 1.76452 5.52883C2.64358 4.75291 3.637 4.18429 4.65006 3.6979C5.66427 3.21034 6.7166 2.83165 7.77702 2.49928C8.83859 2.16922 9.91287 1.89591 10.9941 1.66198C15.3235 0.74709 19.7408 0.44483 24.1315 0.508525C26.3286 0.544426 28.5222 0.681082 30.7031 0.926596C32.884 1.16864 35.0522 1.52996 37.1869 2.03025C39.3192 2.53286 41.4274 3.18255 43.405 4.13449C44.388 4.61394 45.3456 5.17214 46.1646 5.90521C46.5735 6.27001 46.942 6.68576 47.2216 7.15826C47.5011 7.6296 47.6755 8.17043 47.6721 8.72168V8.72052ZM47.6721 8.72052C47.6721 8.16927 47.4942 7.63076 47.2135 7.16173C46.9316 6.69155 46.562 6.27927 46.1519 5.91795C45.3306 5.19183 44.373 4.64058 43.3888 4.16808C42.4023 3.69442 41.3696 3.32383 40.3277 2.9961C39.2834 2.67067 38.223 2.402 37.1557 2.17154C32.8759 1.26823 28.491 0.967126 24.1326 1.03198C21.9517 1.06788 19.7743 1.20454 17.6119 1.44658C15.4495 1.6863 13.3021 2.04531 11.1916 2.53865C9.08579 3.03431 7.00654 3.67937 5.08439 4.60352C4.12909 5.06791 3.20845 5.6099 2.44605 6.29317C2.06601 6.63249 1.73333 7.01234 1.49075 7.4223C1.24702 7.83342 1.11071 8.27581 1.11187 8.72052C1.1084 9.16522 1.24702 9.60877 1.4896 10.0187C1.73218 10.4299 2.06486 10.8085 2.4449 11.149C3.20729 11.8311 4.12793 12.3743 5.08323 12.8387C7.00423 13.7651 9.08464 14.4079 11.1905 14.9047C13.2997 15.4004 15.4483 15.7582 17.6107 15.9979C19.7731 16.2411 21.9506 16.3766 24.1315 16.4125C28.4898 16.4762 32.8759 16.174 37.1545 15.2707C38.2219 15.039 39.2823 14.7704 40.3265 14.4449C41.3685 14.1172 42.4012 13.7466 43.3877 13.273C44.3718 12.8005 45.3294 12.2492 46.1507 11.5231C46.5597 11.1618 46.9305 10.7495 47.2123 10.2793C47.4942 9.81143 47.6721 9.27177 47.6709 8.72052H47.6721Z" fill="url(#paint0_linear_160_334)"/>
<defs>
<linearGradient id="paint0_linear_160_334" x1="8.82011" y1="20.8098" x2="39.2059" y2="-3.69258" gradientUnits="userSpaceOnUse">
<stop stop-color="#2E660D"/>
<stop offset="1" stop-color="#9DDC63"/>
</linearGradient>
</defs>
</svg>
