<svg width="29" height="21" viewBox="0 0 29 21" fill="none" xmlns="http://www.w3.org/2000/svg">
<path d="M15.9043 0.99381C15.1415 0.231067 13.9049 0.231067 13.1421 0.99381L0.712512 13.4234C-0.0502305 14.1862 -0.0502305 15.4228 0.712512 16.1856C1.47526 16.9483 2.71191 16.9483 3.47465 16.1856L14.5232 5.13701L25.5717 16.1856C26.3345 16.9483 27.5711 16.9483 28.3339 16.1856C29.0966 15.4228 29.0966 14.1862 28.3339 13.4234L15.9043 0.99381ZM12.5701 19.0537C12.5701 20.1323 13.4445 21.0068 14.5232 21.0068C15.6019 21.0068 16.4763 20.1323 16.4763 19.0537H12.5701ZM12.5701 2.37488V19.0537H16.4763V2.37488H12.5701Z" fill="#D9D9D9"/>
</svg>
