<svg width="58" height="20" viewBox="0 0 58 20" fill="none" xmlns="http://www.w3.org/2000/svg">
<path d="M57.1822 10.2937C57.1863 10.9431 56.9804 11.583 56.6504 12.1394C56.3204 12.6972 55.8853 13.188 55.4026 13.6187C54.4357 14.4841 53.3052 15.1431 52.1447 15.7091C49.81 16.8316 47.3213 17.5986 44.8039 18.1919C42.2837 18.7812 39.7241 19.2091 37.1494 19.4935C34.5747 19.782 31.985 19.9433 29.3913 19.9857C24.2078 20.0609 18.993 19.7027 13.8818 18.624C12.6068 18.3478 11.3372 18.0251 10.0853 17.6355C8.83475 17.2417 7.59241 16.796 6.39372 16.2218C5.19775 15.6476 4.02632 14.9763 2.98718 14.0603C2.47033 13.6023 1.99031 13.0746 1.61393 12.4457C1.23891 11.8222 0.985257 11.0689 0.986621 10.2937C0.98253 9.51714 1.23754 8.76519 1.61256 8.14038C1.98895 7.51148 2.46897 6.98238 2.98581 6.52574C4.02359 5.60972 5.19638 4.93844 6.39235 4.36422C7.58969 3.78863 8.83202 3.34156 10.0839 2.94918C11.3372 2.55953 12.6054 2.23687 13.8818 1.9607C18.993 0.880627 24.2078 0.523792 29.3913 0.598987C31.985 0.64137 34.5747 0.8027 37.1494 1.09254C39.7241 1.37829 42.2837 1.80485 44.8039 2.39547C47.3213 2.98883 49.81 3.75582 52.1447 4.87965C53.3052 5.44566 54.4357 6.10465 55.4026 6.97007C55.8853 7.40074 56.3204 7.89156 56.6504 8.44937C56.9804 9.00581 57.1863 9.64429 57.1822 10.2951V10.2937ZM57.1822 10.2937C57.1822 9.64292 56.9722 9.00718 56.6408 8.45347C56.3081 7.89839 55.8717 7.41167 55.3876 6.98511C54.418 6.12789 53.2875 5.47711 52.1256 4.9193C50.961 4.36012 49.7418 3.92262 48.5118 3.5357C47.279 3.15152 46.0271 2.83434 44.767 2.56227C39.7145 1.49586 34.5379 1.14039 29.3926 1.21695C26.8179 1.25934 24.2474 1.42067 21.6945 1.70641C19.1416 1.98942 16.6065 2.41324 14.115 2.99566C11.629 3.58082 9.17431 4.34234 6.90511 5.43336C5.77732 5.9816 4.69045 6.62144 3.7904 7.42808C3.34174 7.82867 2.949 8.2771 2.66262 8.76109C2.37487 9.24644 2.21396 9.7687 2.21532 10.2937C2.21123 10.8187 2.37488 11.3423 2.66125 11.8263C2.94763 12.3117 3.34038 12.7587 3.78904 13.1607C4.68908 13.966 5.77596 14.6072 6.90374 15.1554C9.17158 16.2492 11.6276 17.008 14.1137 17.5945C16.6038 18.1796 19.1403 18.6021 21.6931 18.8851C24.246 19.1722 26.8166 19.3322 29.3913 19.3745C34.5365 19.4497 39.7145 19.0929 44.7657 18.0265C46.0257 17.7531 47.2776 17.4359 48.5104 17.0517C49.7405 16.6648 50.9596 16.2273 52.1242 15.6681C53.2861 15.1103 54.4166 14.4595 55.3862 13.6023C55.869 13.1757 56.3067 12.689 56.6395 12.1339C56.9722 11.5816 57.1822 10.9445 57.1809 10.2937H57.1822Z" fill="url(#paint0_linear_160_334)"/>
<defs>
<linearGradient id="paint0_linear_160_334" x1="11.3153" y1="24.5658" x2="47.1874" y2="-4.36065" gradientUnits="userSpaceOnUse">
<stop stop-color="#2E660D"/>
<stop offset="1" stop-color="#9DDC63"/>
</linearGradient>
</defs>
</svg>
