<svg width="81" height="29" viewBox="0 0 81 29" fill="none" xmlns="http://www.w3.org/2000/svg">
<path d="M80.7213 14.5369C80.7267 15.472 80.4289 16.3908 79.9551 17.1888C79.48 17.9909 78.8533 18.6952 78.1602 19.3141C76.7686 20.5558 75.1442 21.5031 73.4751 22.3133C70.118 23.9229 66.5361 25.0113 62.9164 25.8554C59.2912 26.6928 55.6119 27.2872 51.911 27.6821C48.21 28.0798 44.4888 28.2928 40.7648 28.3349C37.0408 28.3729 33.3114 28.2481 29.5956 27.9237C25.8811 27.5926 22.1747 27.0782 18.5184 26.2843C16.691 25.8826 14.8743 25.4171 13.0834 24.8539C12.1873 24.5716 11.2979 24.2662 10.418 23.9324C9.53814 23.5985 8.66637 23.2335 7.8122 22.8222C6.10792 22.0025 4.44154 21.0444 2.97957 19.7524C2.25129 19.1078 1.58122 18.3654 1.06005 17.4941C0.8015 17.0585 0.583558 16.5876 0.4333 16.0895C0.281688 15.5914 0.199113 15.0649 0.199113 14.5383C0.197759 14.0117 0.281687 13.4852 0.431946 12.9857C0.582204 12.4863 0.800147 12.0168 1.0587 11.5811C1.57987 10.7098 2.24994 9.96748 2.97821 9.32149C4.44019 8.0295 6.10657 7.07136 7.81085 6.25166C9.51919 5.43195 11.2912 4.78459 13.0807 4.21731C14.8716 3.6541 16.6883 3.18861 18.5157 2.7869C22.172 1.99026 25.8784 1.47862 29.5942 1.14612C33.3101 0.820412 37.0395 0.696913 40.7648 0.734912C44.4888 0.778341 48.21 0.99005 51.911 1.38905C55.6119 1.78397 59.2912 2.3784 62.9164 3.2171C64.7276 3.63782 66.5253 4.12231 68.2932 4.70181C70.0598 5.2813 71.7979 5.95444 73.4751 6.76058C75.1442 7.57215 76.7686 8.51807 78.1602 9.75984C78.8533 10.3787 79.48 11.083 79.9551 11.8851C80.4303 12.6831 80.7281 13.6019 80.7213 14.5369ZM80.7213 14.5369C80.7227 13.6019 80.4222 12.6858 79.9443 11.8905C79.4665 11.0912 78.8384 10.3923 78.1439 9.77613C76.7496 8.5425 75.1252 7.60471 73.4534 6.80129C72.6169 6.39958 71.76 6.03858 70.8923 5.71016C70.0246 5.38037 69.146 5.07909 68.2607 4.79952C66.4901 4.2431 64.6897 3.78167 62.8785 3.38403C59.2506 2.59554 55.5686 2.08526 51.8744 1.75683C48.1789 1.43519 44.4698 1.31034 40.7634 1.34969C37.0571 1.39176 33.3561 1.60483 29.6768 2.00112C25.9975 2.39333 22.3412 2.98639 18.7459 3.8156C15.1573 4.65159 11.6106 5.73459 8.31712 7.31293C6.68053 8.10686 5.09808 9.03513 3.77418 10.2172C3.11358 10.8062 2.53015 11.4685 2.09832 12.1973C1.6665 12.9247 1.41201 13.7295 1.41472 14.5383C1.4093 15.3485 1.66515 16.1519 2.09697 16.8807C2.52879 17.6095 3.11223 18.2718 3.77283 18.8608C5.09672 20.0442 6.67917 20.9711 8.31577 21.765C9.95914 22.5562 11.6729 23.2212 13.4191 23.7926C15.1667 24.3653 16.9468 24.8457 18.7432 25.2637C22.3385 26.0956 25.9948 26.686 29.6741 27.0796C33.3534 27.4772 37.0557 27.6876 40.7621 27.731C44.4671 27.769 48.1775 27.6455 51.8731 27.3225C55.5659 26.9927 59.2493 26.4838 62.8771 25.6939C64.6897 25.2963 66.4888 24.8349 68.2594 24.2771C70.0286 23.7166 71.7776 23.0787 73.4521 22.2753C75.1225 21.4719 76.7483 20.5341 78.1426 19.3005C78.837 18.6857 79.4651 17.9854 79.943 17.1861C80.4208 16.3908 80.7213 15.4747 80.72 14.5397L80.7213 14.5369Z" fill="url(#paint0_linear_160_333)"/>
<defs>
<linearGradient id="paint0_linear_160_333" x1="15.0652" y1="34.9903" x2="66.2152" y2="-6.25716" gradientUnits="userSpaceOnUse">
<stop stop-color="#2E660D"/>
<stop offset="1" stop-color="#9DDC63"/>
</linearGradient>
</defs>
</svg>
