<svg width="82" height="29" viewBox="0 0 82 29" fill="none" xmlns="http://www.w3.org/2000/svg">
<path d="M81.6451 14.8817C81.6505 15.8237 81.3505 16.7492 80.8732 17.5531C80.3945 18.3612 79.7632 19.0707 79.0649 19.6942C77.663 20.9451 76.0266 21.8994 74.3451 22.7156C70.9632 24.3371 67.3548 25.4336 63.7082 26.284C60.0562 27.1275 56.3497 27.7264 52.6213 28.1242C48.8929 28.5248 45.1441 28.7395 41.3926 28.7818C37.641 28.8201 33.884 28.6943 30.1406 28.3676C26.3986 28.034 22.6648 27.5158 18.9814 26.716C17.1404 26.3113 15.3103 25.8424 13.5061 25.275C12.6034 24.9906 11.7074 24.683 10.821 24.3467C9.93459 24.0104 9.05636 23.6426 8.19587 23.2283C6.47896 22.4026 4.80024 21.4373 3.32744 20.1358C2.59376 19.4863 1.91873 18.7385 1.3937 17.8608C1.13323 17.4219 0.913676 16.9475 0.762305 16.4457C0.60957 15.944 0.526383 15.4135 0.526383 14.883C0.52502 14.3526 0.60957 13.8221 0.760941 13.319C0.912312 12.8158 1.13187 12.3428 1.39234 11.9039C1.91736 11.0262 2.5924 10.2784 3.32607 9.62757C4.79887 8.32601 6.4776 7.36078 8.1945 6.535C9.9155 5.70922 11.7006 5.05707 13.5034 4.48559C15.3076 3.9182 17.1377 3.44926 18.9787 3.04458C22.6621 2.24204 26.3959 1.72661 30.1393 1.39165C33.8826 1.06353 37.6396 0.939112 41.3926 0.977393C45.1441 1.02114 48.8929 1.23442 52.6213 1.63637C56.3497 2.03422 60.0562 2.63305 63.7082 3.47797C65.5329 3.9018 67.3439 4.38988 69.1249 4.97367C70.9045 5.55746 72.6555 6.23559 74.3451 7.0477C76.0266 7.86527 77.663 8.8182 79.0649 10.0692C79.7632 10.6926 80.3945 11.4022 80.8732 12.2102C81.3519 13.0141 81.6519 13.9397 81.6451 14.8817ZM81.6451 14.8817C81.6464 13.9397 81.3437 13.0168 80.8623 12.2157C80.3809 11.4104 79.7481 10.7063 79.0486 10.0856C77.6439 8.84281 76.0075 7.89808 74.3233 7.08871C73.4806 6.68402 72.6173 6.32035 71.7432 5.98949C70.8691 5.65726 69.984 5.35375 69.0922 5.07211C67.3084 4.51156 65.4947 4.04672 63.6701 3.64614C60.0153 2.8518 56.306 2.33774 52.5845 2.00688C48.8616 1.68286 45.125 1.55708 41.3912 1.59673C37.6574 1.63911 33.929 1.85376 30.2224 2.25298C26.5159 2.64809 22.8325 3.24555 19.2105 4.0809C15.5953 4.92309 12.0224 6.0141 8.70453 7.60414C7.05581 8.40394 5.46164 9.3391 4.12793 10.5299C3.46244 11.1233 2.87468 11.7905 2.43966 12.5246C2.00464 13.2575 1.74826 14.0682 1.75099 14.883C1.74554 15.6992 2.00328 16.5086 2.4383 17.2428C2.87332 17.977 3.46108 18.6442 4.12657 19.2375C5.46027 20.4297 7.05444 21.3635 8.70316 22.1633C10.3587 22.9604 12.0852 23.6303 13.8443 24.2059C15.6049 24.7828 17.3982 25.2668 19.2078 25.6879C22.8298 26.526 26.5132 27.1207 30.2197 27.5172C33.9263 27.9178 37.656 28.1297 41.3898 28.1734C45.1223 28.2117 48.8602 28.0873 52.5831 27.7619C56.3033 27.4297 60.014 26.917 63.6687 26.1213C65.4947 25.7207 67.3071 25.2559 69.0908 24.694C70.8731 24.1293 72.6351 23.4867 74.322 22.6774C76.0048 21.868 77.6426 20.9233 79.0472 19.6805C79.7468 19.0612 80.3795 18.3557 80.8609 17.5504C81.3423 16.7492 81.6451 15.8264 81.6437 14.8844L81.6451 14.8817Z" fill="url(#paint0_linear_160_333)"/>
<defs>
<linearGradient id="paint0_linear_160_333" x1="15.5026" y1="35.4865" x2="67.0315" y2="-6.06647" gradientUnits="userSpaceOnUse">
<stop stop-color="#2E660D"/>
<stop offset="1" stop-color="#9DDC63"/>
</linearGradient>
</defs>
</svg>
