<svg width="25" height="19" viewBox="0 0 25 19" fill="none" xmlns="http://www.w3.org/2000/svg">
<path d="M13.8877 1.368C13.2369 0.717124 12.1816 0.717124 11.5307 1.368L0.924115 11.9746C0.273241 12.6255 0.273241 13.6807 0.924115 14.3316C1.57499 14.9825 2.63026 14.9825 3.28114 14.3316L12.7092 4.90353L22.1373 14.3316C22.7882 14.9825 23.8435 14.9825 24.4943 14.3316C25.1452 13.6807 25.1452 12.6255 24.4943 11.9746L13.8877 1.368ZM11.0426 16.7791C11.0426 17.6995 11.7888 18.4457 12.7092 18.4457C13.6297 18.4457 14.3759 17.6995 14.3759 16.7791H11.0426ZM11.0426 2.54651V16.7791H14.3759V2.54651H11.0426Z" fill="#D9D9D9"/>
</svg>
