<svg width="70" height="24" viewBox="0 0 70 24" fill="none" xmlns="http://www.w3.org/2000/svg">
<path d="M69.2289 11.9126C69.2335 12.7105 68.9794 13.4945 68.5751 14.1755C68.1697 14.8599 67.6348 15.4609 67.0434 15.989C65.8559 17.0487 64.4697 17.857 63.0455 18.5484C60.1807 19.9219 57.1242 20.8507 54.0354 21.571C50.9419 22.2855 47.8022 22.7928 44.6441 23.1298C41.4859 23.4691 38.3105 23.6509 35.1327 23.6868C31.9549 23.7192 28.7725 23.6127 25.6016 23.3359C22.4319 23.0533 19.2691 22.6144 16.1491 21.937C14.5897 21.5942 13.0395 21.1969 11.5112 20.7163C10.7465 20.4754 9.9876 20.2149 9.23676 19.93C8.48592 19.6451 7.74201 19.3336 7.01312 18.9827C5.5588 18.2832 4.13682 17.4656 2.88927 16.3631C2.26781 15.813 1.69601 15.1795 1.25128 14.436C1.03065 14.0643 0.844675 13.6624 0.716455 13.2374C0.587079 12.8124 0.516615 12.3631 0.516615 11.9137C0.51546 11.4644 0.587079 11.015 0.715299 10.5889C0.84352 10.1627 1.0295 9.76199 1.25013 9.39024C1.69486 8.64675 2.26665 8.01328 2.88812 7.46203C4.13567 6.35953 5.55764 5.54192 7.01196 4.84244C8.46975 4.14295 9.98183 3.59054 11.5089 3.10646C13.0372 2.62586 14.5874 2.22864 16.1468 1.88584C19.2668 1.20605 22.4296 0.769449 25.6005 0.485717C28.7713 0.207777 31.9537 0.102391 35.1327 0.134817C38.3105 0.171876 41.4859 0.352535 44.6441 0.693012C47.8022 1.03002 50.9419 1.53726 54.0354 2.25295C55.5809 2.61196 57.115 3.0254 58.6236 3.5199C60.131 4.0144 61.6142 4.58882 63.0455 5.27672C64.4697 5.96926 65.8559 6.77644 67.0434 7.83609C67.6348 8.36418 68.1697 8.96522 68.5751 9.64965C68.9806 10.3306 69.2347 11.1146 69.2289 11.9126ZM69.2289 11.9126C69.2301 11.1146 68.9736 10.3329 68.5659 9.65429C68.1581 8.97217 67.6221 8.37576 67.0295 7.84999C65.8397 6.79729 64.4536 5.99705 63.027 5.31146C62.3131 4.96867 61.5819 4.66062 60.8415 4.38036C60.101 4.09894 59.3513 3.84185 58.5959 3.60328C57.0849 3.12847 55.5486 2.73472 54.003 2.3954C50.9073 1.72255 47.7653 1.28711 44.6129 1.00686C41.4594 0.73239 38.2943 0.625846 35.1315 0.65943C31.9687 0.695331 28.8106 0.877149 25.6709 1.21531C22.5313 1.55 19.4112 2.05608 16.3432 2.76367C13.2809 3.47705 10.2544 4.40121 7.44399 5.74806C6.04742 6.42554 4.69706 7.21767 3.56734 8.22637C3.00363 8.72898 2.50576 9.29412 2.13728 9.91602C1.76879 10.5367 1.55162 11.2235 1.55393 11.9137C1.54931 12.6051 1.76763 13.2907 2.13612 13.9126C2.50461 14.5345 3.00248 15.0996 3.56618 15.6022C4.69591 16.6121 6.04627 17.403 7.44283 18.0805C8.84517 18.7557 10.3076 19.3232 11.7977 19.8107C13.289 20.2994 14.808 20.7094 16.3409 21.0661C19.4089 21.776 22.5289 22.2797 25.6686 22.6156C28.8083 22.9549 31.9676 23.1344 35.1304 23.1715C38.292 23.2039 41.4582 23.0985 44.6117 22.8229C47.763 22.5415 50.9061 22.1072 54.0019 21.4332C55.5486 21.0939 57.0838 20.7001 58.5947 20.2241C60.1045 19.7459 61.5969 19.2016 63.0258 18.516C64.4513 17.8304 65.8386 17.0301 67.0284 15.9774C67.621 15.4528 68.157 14.8553 68.5647 14.1731C68.9725 13.4945 69.2289 12.7128 69.2278 11.9149L69.2289 11.9126Z" fill="url(#paint0_linear_160_333)"/>
<defs>
<linearGradient id="paint0_linear_160_333" x1="13.2024" y1="29.3661" x2="56.8504" y2="-5.83175" gradientUnits="userSpaceOnUse">
<stop stop-color="#2E660D"/>
<stop offset="1" stop-color="#9DDC63"/>
</linearGradient>
</defs>
</svg>
